<?xml version="1.0" standalone="no"?>
<!DOCTYPE svg PUBLIC "-//W3C//DTD SVG 20010904//EN"
 "http://www.w3.org/TR/2001/REC-SVG-20010904/DTD/svg10.dtd">
<svg version="1.0" xmlns="http://www.w3.org/2000/svg"
 width="700.000000pt" height="700.000000pt" viewBox="0 0 700.000000 700.000000"
 preserveAspectRatio="xMidYMid meet">
<metadata>
Created by potrace 1.14, written by Peter Selinger 2001-2017
</metadata>
<g transform="translate(0.000000,700.000000) scale(0.100000,-0.100000)"
fill="#000000" stroke="none">
<path d="M0 3500 l0 -3500 3500 0 3500 0 0 3500 0 3500 -3500 0 -3500 0 0
-3500z m3180 1605 l0 -1285 -1285 0 -1285 0 0 1285 0 1285 1285 0 1285 0 0
-1285z m3210 0 l0 -1285 -1285 0 -1285 0 0 1285 0 1285 1285 0 1285 0 0 -1285z
m-3210 -3210 l0 -1285 -1285 0 -1285 0 0 1285 0 1285 1285 0 1285 0 0 -1285z
m1280 965 l0 -320 325 0 325 0 0 320 0 320 320 0 320 0 0 -320 0 -320 320 0
320 0 0 -325 0 -325 -320 0 -320 0 0 -320 0 -320 320 0 320 0 0 -320 0 -320
-320 0 -320 0 0 320 0 320 -320 0 -320 0 0 -320 0 -320 -325 0 -325 0 0 320 0
320 -320 0 -320 0 0 320 0 320 320 0 320 0 0 325 0 325 -320 0 -320 0 0 320 0
320 320 0 320 0 0 -320z"/>
<path d="M1250 5105 l0 -645 643 2 642 3 0 640 0 640 -642 3 -643 2 0 -645z"/>
<path d="M4460 5105 l0 -645 643 2 642 3 0 640 0 640 -642 3 -643 2 0 -645z"/>
<path d="M1250 1895 l0 -645 643 2 642 3 0 640 0 640 -642 3 -643 2 0 -645z"/>
<path d="M5110 2215 l0 -325 -325 0 -325 0 0 -320 0 -320 325 0 325 0 0 320 0
320 320 0 320 0 0 325 0 325 -320 0 -320 0 0 -325z"/>
</g>
</svg>
